<svg width="60" height="60" viewBox="0 0 60 60" fill="none" xmlns="http://www.w3.org/2000/svg">
<g clip-path="url(#clip0_179_897)">
<path d="M57.1518 5.61469H2.81074C1.26109 5.61469 0 6.87361 0 8.42061V43.9595C0 45.5065 1.26109 46.7654 2.81074 46.7654H18.7505V49.5676H14.0481C12.4984 49.5676 11.2374 50.8265 11.2374 52.3735V53.3088C11.2374 53.8261 11.6562 54.2442 12.1743 54.2442H47.7883C48.3064 54.2442 48.7252 53.8261 48.7252 53.3088V52.3735C48.7252 50.8265 47.4641 49.5676 45.9144 49.5676H41.2561V46.7654H57.1518C58.7014 46.7654 59.9625 45.5065 59.9625 43.9595V8.42061C59.9625 6.87361 58.7014 5.61469 57.1518 5.61469ZM2.81074 7.4853H57.1518C57.669 7.4853 58.0887 7.90525 58.0887 8.42061V41.1536H1.87383V8.42061C1.87383 7.90525 2.29357 7.4853 2.81074 7.4853ZM14.0481 51.4382H45.9144C46.4316 51.4382 46.8513 51.8573 46.8513 52.3735H13.1112C13.1112 51.8573 13.5309 51.4382 14.0481 51.4382ZM39.3823 49.5676H20.6243V46.7654H39.3823V49.5676ZM57.1518 44.8948H2.81074C2.29357 44.8948 1.87383 44.4758 1.87383 43.9595V43.0242H30.0028C29.495 43.0345 29.0893 43.4451 29.0893 43.9558C29.0893 44.473 29.5128 44.8911 30.0309 44.8911C30.5481 44.8911 30.9678 44.473 30.9678 43.9558C30.9678 43.4451 30.5575 43.0345 30.0497 43.0242H58.0887V43.9595C58.0887 44.4758 57.669 44.8948 57.1518 44.8948Z" fill="#BA92EE"/>
</g>
<defs>
<clipPath id="clip0_179_897">
<rect width="59.9625" height="59.8597" fill="white"/>
</clipPath>
</defs>
</svg>
